HIERARCHY
ROOT Hips
{
	OFFSET 0.00 0.00 0.00
	CHANNELS 6 Xposition Yposition Zposition Yrotation Xrotation Zrotation
	JOINT LHipJoint
	{
		OFFSET	0.0000	0.0000	0.0000
		CHANNELS 3 Yrotation Xrotation Zrotation
		JOINT LeftUpLeg
		{
			OFFSET	1.0138	-0.0809	-0.0827
			CHANNELS 3 Yrotation Xrotation Zrotation
			JOINT LeftLeg
			{
				OFFSET	0.4110	-3.9095	0.3245
				CHANNELS 3 Yrotation Xrotation Zrotation
				JOINT LeftFoot
				{
					OFFSET	0.3810	-4.0555	-0.1470
					CHANNELS 3 Yrotation Xrotation Zrotation
					JOINT LeftToeBase
					{
						OFFSET	0.1396	-0.4462	1.3079
						CHANNELS 3 Yrotation Xrotation Zrotation
						End Site
						{
							OFFSET 0.0161 -0.0248 0.1809
						}
					}
				}
			}
		}
	}
	JOINT LowerBack
	{
		OFFSET	0.0000	0.7977	-0.3873
		CHANNELS 3 Yrotation Xrotation Zrotation
		JOINT Spine
		{
			OFFSET	0.0000	1.4131	0.1715
			CHANNELS 3 Yrotation Xrotation Zrotation
			JOINT Spine1
			{
				OFFSET	0.0000	1.4392	-0.1032
				CHANNELS 3 Yrotation Xrotation Zrotation
				JOINT LeftShoulder
				{
					OFFSET	0.2274	1.0382	0.4032
					CHANNELS 3 Yrotation Xrotation Zrotation
					JOINT LeftArm
					{
						OFFSET	1.4730	-0.2267	-0.0231
						CHANNELS 3 Yrotation Xrotation Zrotation
						JOINT LeftForeArm
						{
							OFFSET	1.6131	-1.8059	0.0081
							CHANNELS 3 Yrotation Xrotation Zrotation
							JOINT LeftHand
							{
								OFFSET	1.2197	-1.2423	1.6317
								CHANNELS 3 Yrotation Xrotation Zrotation
								JOINT LThumb
								{
									OFFSET	0.0109	-0.0753	0.4387
									CHANNELS 3 Yrotation Xrotation Zrotation
									End Site
									{
										OFFSET -0.2090 -0.0868 0.2097
									}
								}
								JOINT LeftFingerBase
								{
									OFFSET	0.1071	-0.1567	0.2607
									CHANNELS 3 Yrotation Xrotation Zrotation
									JOINT LeftHandFinger1
									{
										OFFSET	0.1706	-0.2492	0.6830
										CHANNELS 3 Yrotation Xrotation Zrotation
										End Site
										{
											OFFSET 0.0335 -0.1507 0.2071
										}
									}
								}
							}
						}
					}
				}
				JOINT Neck
				{
					OFFSET	0.0000	1.7498	0.2381
					CHANNELS 3 Yrotation Xrotation Zrotation
					JOINT Neck1
					{
						OFFSET	0.0000	0.5043	0.1959
						CHANNELS 3 Yrotation Xrotation Zrotation
						JOINT Head
						{
							OFFSET	0.0000	0.5044	0.1959
							CHANNELS 3 Yrotation Xrotation Zrotation
							End Site
							{
								OFFSET 0.0000 1.4798 -0.0693
							}
						}
					}
				}
				JOINT RightShoulder
				{
					OFFSET	-0.2274	1.0382	0.4032
					CHANNELS 3 Yrotation Xrotation Zrotation
					JOINT RightArm
					{
						OFFSET	-1.4730	-0.2267	-0.0231
						CHANNELS 3 Yrotation Xrotation Zrotation
						JOINT RightForeArm
						{
							OFFSET	-1.6131	-1.8059	0.0081
							CHANNELS 3 Yrotation Xrotation Zrotation
							JOINT RightHand
							{
								OFFSET	-1.2197	-1.2423	1.6317
								CHANNELS 3 Yrotation Xrotation Zrotation
								JOINT RThumb
								{
									OFFSET	-0.0109	-0.0753	0.4387
									CHANNELS 3 Yrotation Xrotation Zrotation
									End Site
									{
										OFFSET 0.2090 -0.0868 0.2097
									}
								}
								JOINT RightFingerBase
								{
									OFFSET	-0.1071	-0.1567	0.2607
									CHANNELS 3 Yrotation Xrotation Zrotation
									JOINT RightHandFinger1
									{
										OFFSET	-0.1706	-0.2492	0.6830
										CHANNELS 3 Yrotation Xrotation Zrotation
										End Site
										{
											OFFSET -0.0335 -0.1507 0.2071
										}
									}
								}
							}
						}
					}
				}
			}
		}
	}
	JOINT RHipJoint
	{
		OFFSET	0.0000	0.0000	0.0000
		CHANNELS 3 Yrotation Xrotation Zrotation
		JOINT RightUpLeg
		{
			OFFSET	-1.0138	-0.0809	-0.0827
			CHANNELS 3 Yrotation Xrotation Zrotation
			JOINT RightLeg
			{
				OFFSET	-0.4110	-3.9095	0.3245
				CHANNELS 3 Yrotation Xrotation Zrotation
				JOINT RightFoot
				{
					OFFSET	-0.3810	-4.0555	-0.1470
					CHANNELS 3 Yrotation Xrotation Zrotation
					JOINT RightToeBase
					{
						OFFSET	-0.1396	-0.4462	1.3079
						CHANNELS 3 Yrotation Xrotation Zrotation
						End Site
						{
							OFFSET -0.0161 -0.0248 0.1809
						}
					}
				}
			}
		}
	}
}
MOTION
Frames: 10
Frame Time: 0.0333333
-0.0174 8.6913 0.1721 -5.0398 -4.1985 -2.5179 0.0000 -0.0000 0.0000 15.4818 -5.8366 1.3776 3.1022 11.3537 4.7662 0.5667 -1.9698 -1.8450 0.0000 -4.8651 -0.0000 0.0000 -0.0000 0.0000 0.8505 1.5610 2.0682 1.7604 3.0958 3.9118 -16.6361 1.2052 -2.5352 -20.3319 0.4607 -33.0169 29.9629 30.2359 6.0049 22.3688 -2.7269 -24.9663 25.5061 -2.3861 12.1143 0.8522 13.7957 -3.6817 -6.4409 -3.9207 -2.4812 -0.1751 5.1299 0.6071 -0.1984 5.1237 0.6449 1.6548 -12.4978 -1.1295 14.9088 1.2486 5.5189 29.7124 7.7186 24.7926 -25.5590 26.8384 -3.9695 -16.9295 1.6675 14.7313 -24.4738 -3.2534 -10.2851 -1.2253 13.1427 3.2483 6.6723 -4.1923 2.5304 0.0000 -0.0000 0.0000 -10.6210 5.8691 8.0871 -10.3237 4.8633 -4.2362 -1.0238 -7.2703 -1.7252 -0.0000 -6.9034 0.0000 
-0.0171 8.6917 0.1721 -5.0369 -4.1921 -2.5255 0.0000 -0.0000 0.0000 15.4761 -5.8332 1.3803 3.1051 11.3309 4.7678 0.5672 -1.9602 -1.8489 0.0000 -4.8615 -0.0000 0.0000 -0.0000 0.0000 0.8508 1.5552 2.0653 1.7608 3.0841 3.9026 -16.6429 1.2028 -2.5467 -20.3197 0.4824 -33.0167 29.9660 30.2382 6.0065 22.3690 -2.7231 -24.9577 25.5061 -2.3861 12.1143 0.8522 13.7957 -3.6817 -6.4409 -3.9207 -2.4811 -0.1759 5.1188 0.6006 -0.1991 5.1125 0.6384 1.6403 -12.4923 -1.1132 14.8888 1.2515 5.5260 29.7334 7.7438 24.7928 -25.5638 26.8423 -3.9716 -16.9201 1.6636 14.7550 -24.4738 -3.2534 -10.2851 -1.2254 13.1427 3.2483 6.6723 -4.1923 2.5304 0.0000 -0.0000 0.0000 -10.6272 5.8973 8.0889 -10.3156 4.7995 -4.2163 -1.0173 -7.2374 -1.7341 -0.0000 -6.8993 -0.0000 
-0.0169 8.6921 0.1721 -5.0365 -4.1825 -2.5327 0.0000 -0.0000 0.0000 15.4703 -5.8357 1.3828 3.1045 11.3160 4.7694 0.5674 -1.9507 -1.8505 0.0000 -4.8647 0.0000 0.0000 -0.0000 0.0000 0.8511 1.5513 2.0620 1.7612 3.0765 3.8933 -16.6429 1.2014 -2.5601 -20.3099 0.4965 -33.0071 29.9640 30.2368 6.0055 22.3698 -2.7243 -24.9447 25.5061 -2.3861 12.1143 0.8522 13.7957 -3.6817 -6.4409 -3.9207 -2.4812 -0.1753 5.1082 0.5916 -0.1984 5.1021 0.6294 1.6312 -12.4894 -1.1017 14.8667 1.2548 5.5336 29.7685 7.7612 24.7860 -25.5748 26.8512 -3.9764 -16.9192 1.6510 14.7835 -24.4738 -3.2534 -10.2851 -1.2254 13.1427 3.2483 6.6723 -4.1923 2.5304 0.0000 -0.0000 0.0000 -10.6259 5.9190 8.0946 -10.3083 4.7423 -4.2029 -1.0150 -7.2086 -1.7396 0.0000 -6.8902 -0.0000 
-0.0168 8.6922 0.1721 -5.0402 -4.1701 -2.5403 0.0000 -0.0000 0.0000 15.4654 -5.8499 1.3861 3.1048 11.3194 4.7721 0.5673 -1.9512 -1.8521 0.0000 -4.8710 -0.0000 0.0000 -0.0000 0.0000 0.8506 1.5498 2.0592 1.7601 3.0736 3.8849 -16.6344 1.2012 -2.5746 -20.3026 0.5003 -32.9894 29.9609 30.2345 6.0039 22.3758 -2.7373 -24.9273 25.5061 -2.3861 12.1143 0.8522 13.7957 -3.6817 -6.4409 -3.9207 -2.4811 -0.1722 5.0999 0.5817 -0.1955 5.0937 0.6193 1.6326 -12.4989 -1.0994 14.8566 1.2564 5.5382 29.7883 7.7666 24.7761 -25.5804 26.8558 -3.9789 -16.9275 1.6396 14.7977 -24.4738 -3.2534 -10.2851 -1.2254 13.1428 3.2483 6.6723 -4.1923 2.5305 0.0000 -0.0000 0.0000 -10.6152 5.9255 8.1052 -10.3039 4.7072 -4.1987 -1.0147 -7.1905 -1.7408 0.0000 -6.8913 -0.0000 
-0.0168 8.6919 0.1721 -5.0446 -4.1586 -2.5499 0.0000 -0.0000 0.0000 15.4621 -5.8804 1.3927 3.1067 11.3532 4.7759 0.5673 -1.9695 -1.8550 -0.0000 -4.8764 0.0000 0.0000 -0.0000 0.0000 0.8484 1.5510 2.0568 1.7557 3.0761 3.8780 -16.6249 1.2013 -2.5864 -20.2940 0.4935 -32.9691 29.9622 30.2354 6.0046 22.3947 -2.7643 -24.9157 25.5061 -2.3861 12.1143 0.8522 13.7957 -3.6817 -6.4409 -3.9208 -2.4811 -0.1676 5.0967 0.5738 -0.1907 5.0907 0.6114 1.6441 -12.5262 -1.1068 14.8650 1.2544 5.5421 29.7818 7.7654 24.7655 -25.5780 26.8539 -3.9778 -16.9369 1.6337 14.8002 -24.4738 -3.2534 -10.2851 -1.2254 13.1427 3.2483 6.6723 -4.1923 2.5305 0.0000 -0.0000 0.0000 -10.6005 5.9102 8.1198 -10.3056 4.7152 -4.2038 -1.0165 -7.1937 -1.7383 -0.0000 -6.9041 -0.0000 
-0.0170 8.6914 0.1719 -5.0448 -4.1505 -2.5615 0.0000 -0.0000 0.0000 15.4596 -5.9221 1.4023 3.1116 11.4104 4.7815 0.5673 -1.9981 -1.8586 0.0000 -4.8796 -0.0000 0.0000 -0.0000 0.0000 0.8447 1.5556 2.0542 1.7483 3.0855 3.8719 -16.6229 1.2009 -2.5923 -20.2838 0.4778 -32.9495 29.9672 30.2391 6.0070 22.4284 -2.8012 -24.9147 25.5061 -2.3861 12.1143 0.8522 13.7957 -3.6817 -6.4409 -3.9207 -2.4811 -0.1626 5.0994 0.5705 -0.1857 5.0933 0.6080 1.6592 -12.5709 -1.1167 14.8877 1.2494 5.5513 29.7646 7.7678 24.7534 -25.5731 26.8499 -3.9757 -16.9375 1.6318 14.8087 -24.4738 -3.2534 -10.2852 -1.2254 13.1427 3.2483 6.6723 -4.1923 2.5304 0.0000 -0.0000 0.0000 -10.5887 5.8835 8.1363 -10.3113 4.7538 -4.2126 -1.0201 -7.2130 -1.7352 0.0000 -6.9151 -0.0000 
-0.0175 8.6908 0.1718 -5.0394 -4.1452 -2.5735 0.0000 -0.0000 0.0000 15.4577 -5.9652 1.4132 3.1167 11.4718 4.7886 0.5673 -2.0240 -1.8612 -0.0000 -4.8823 0.0000 0.0000 -0.0000 0.0000 0.8408 1.5642 2.0515 1.7408 3.1030 3.8665 -16.6303 1.1996 -2.5948 -20.2759 0.4577 -32.9275 29.9683 30.2399 6.0076 22.4673 -2.8388 -24.9162 25.5061 -2.3861 12.1143 0.8522 13.7957 -3.6817 -6.4409 -3.9207 -2.4811 -0.1590 5.1063 0.5701 -0.1820 5.1003 0.6074 1.6678 -12.6262 -1.1181 14.9148 1.2432 5.5657 29.7535 7.7763 24.7422 -25.5710 26.8482 -3.9748 -16.9277 1.6310 14.8333 -24.4738 -3.2534 -10.2851 -1.2254 13.1427 3.2483 6.6723 -4.1923 2.5304 0.0000 -0.0000 0.0000 -10.5778 5.8600 8.1553 -10.3167 4.7947 -4.2230 -1.0288 -7.2353 -1.7324 0.0000 -6.9169 0.0000 
-0.0182 8.6904 0.1719 -5.0311 -4.1425 -2.5855 0.0000 -0.0000 0.0000 15.4579 -6.0004 1.4248 3.1164 11.5229 4.7955 0.5673 -2.0437 -1.8624 0.0000 -4.8854 -0.0000 0.0000 -0.0000 0.0000 0.8382 1.5762 2.0496 1.7358 3.1270 3.8619 -16.6426 1.1971 -2.6006 -20.2717 0.4402 -32.8960 29.9595 30.2335 6.0033 22.4971 -2.8687 -24.9130 25.5061 -2.3861 12.1143 0.8522 13.7957 -3.6817 -6.4409 -3.9207 -2.4811 -0.1572 5.1160 0.5677 -0.1802 5.1099 0.6048 1.6632 -12.6794 -1.1049 14.9384 1.2375 5.5804 29.7463 7.7827 24.7398 -25.5714 26.8485 -3.9749 -16.9132 1.6310 14.8661 -24.4738 -3.2534 -10.2851 -1.2254 13.1427 3.2483 6.6723 -4.1923 2.5304 0.0000 -0.0000 0.0000 -10.5667 5.8505 8.1763 -10.3196 4.8163 -4.2323 -1.0413 -7.2503 -1.7306 0.0000 -6.9182 0.0000 
-0.0189 8.6901 0.1721 -5.0237 -4.1417 -2.5969 0.0000 -0.0000 0.0000 15.4604 -6.0265 1.4369 3.1102 11.5642 4.8012 0.5675 -2.0620 -1.8653 0.0000 -4.8846 0.0000 0.0000 -0.0000 0.0000 0.8364 1.5894 2.0481 1.7325 3.1535 3.8577 -16.6557 1.1935 -2.6155 -20.2656 0.4314 -32.8497 29.9443 30.2223 5.9958 22.5130 -2.8925 -24.9115 25.5061 -2.3861 12.1143 0.8522 13.7957 -3.6817 -6.4409 -3.9207 -2.4811 -0.1566 5.1291 0.5599 -0.1795 5.1232 0.5971 1.6485 -12.7201 -1.0841 14.9545 1.2335 5.5926 29.7333 7.7772 24.7530 -25.5706 26.8478 -3.9746 -16.8976 1.6341 14.8916 -24.4738 -3.2534 -10.2851 -1.2254 13.1427 3.2483 6.6723 -4.1923 2.5304 0.0000 -0.0000 0.0000 -10.5599 5.8502 8.1947 -10.3210 4.8264 -4.2379 -1.0506 -7.2605 -1.7304 0.0000 -6.9286 0.0000 
-0.0196 8.6898 0.1725 -5.0203 -4.1398 -2.6071 0.0000 -0.0000 0.0000 15.4648 -6.0480 1.4494 3.1013 11.5991 4.8046 0.5684 -2.0823 -1.8727 0.0000 -4.8793 -0.0000 0.0000 -0.0000 0.0000 0.8335 1.6028 2.0461 1.7272 3.1805 3.8529 -16.6696 1.1887 -2.6395 -20.2510 0.4295 -32.7903 29.9325 30.2137 5.9901 22.5269 -2.9246 -24.9225 25.5061 -2.3861 12.1143 0.8522 13.7957 -3.6817 -6.4409 -3.9207 -2.4812 -0.1549 5.1456 0.5474 -0.1778 5.1397 0.5846 1.6363 -12.7489 -1.0711 14.9641 1.2305 5.6048 29.7181 7.7602 24.7801 -25.5664 26.8444 -3.9728 -16.8797 1.6383 14.9044 -24.4738 -3.2534 -10.2851 -1.2254 13.1427 3.2483 6.6723 -4.1923 2.5305 0.0000 -0.0000 0.0000 -10.5573 5.8483 8.2103 -10.3226 4.8378 -4.2414 -1.0562 -7.2714 -1.7313 0.0000 -6.9399 -0.0000 
